<?xml version="1.0" encoding="UTF-8" standalone="no"?>
<!-- Created with Inkscape (http://www.inkscape.org/) -->

<svg
   xmlns:dc="http://purl.org/dc/elements/1.1/"
   xmlns:cc="http://creativecommons.org/ns#"
   xmlns:rdf="http://www.w3.org/1999/02/22-rdf-syntax-ns#"
   xmlns:svg="http://www.w3.org/2000/svg"
   xmlns="http://www.w3.org/2000/svg"
   xmlns:sodipodi="http://sodipodi.sourceforge.net/DTD/sodipodi-0.dtd"
   xmlns:inkscape="http://www.inkscape.org/namespaces/inkscape"
   width="16"
   height="16"
   id="svg3376"
   version="1.1"
   inkscape:version="0.91 r13725"
   viewBox="0 0 16 16"
   sodipodi:docname="optimisedfav.svg">
  <defs
     id="defs3378" />
  <sodipodi:namedview
     id="base"
     pagecolor="#ffffff"
     bordercolor="#666666"
     borderopacity="1.0"
     inkscape:pageopacity="0.0"
     inkscape:pageshadow="2"
     inkscape:zoom="41.443633"
     inkscape:cx="9.0839896"
     inkscape:cy="7.9292398"
     inkscape:current-layer="layer1"
     showgrid="true"
     inkscape:grid-bbox="true"
     inkscape:document-units="px"
     inkscape:window-width="1366"
     inkscape:window-height="704"
     inkscape:window-x="0"
     inkscape:window-y="27"
     inkscape:window-maximized="1" />
  <metadata
     id="metadata3381">
    <rdf:RDF>
      <cc:Work
         rdf:about="">
        <dc:format>image/svg+xml</dc:format>
        <dc:type
           rdf:resource="http://purl.org/dc/dcmitype/StillImage" />
        <dc:title></dc:title>
      </cc:Work>
    </rdf:RDF>
  </metadata>
  <g
     id="layer1"
     inkscape:label="Layer 1"
     inkscape:groupmode="layer">
    <path
       inkscape:connector-curvature="0"
       d="m 11.614754,10.764018 c -0.150076,0 -0.212997,0.184476 -0.212997,0.361388 0,0.177114 0.06292,0.361391 0.212997,0.361391 0.150077,0 0.212998,-0.184277 0.212998,-0.361391 0,-0.177111 -0.06292,-0.361388 -0.212998,-0.361388 z"
       id="path3"
       style="fill:#00ff00" />
    <path
       inkscape:connector-curvature="0"
       d="m 10.959469,10.764018 c -0.150073,0 -0.212998,0.184476 -0.212998,0.361388 0,0.177114 0.06292,0.361391 0.212998,0.361391 0.150077,0 0.212998,-0.184277 0.212998,-0.361391 0,-0.177111 -0.06292,-0.361388 -0.212998,-0.361388 z"
       id="path5"
       style="fill:#00ff00" />
    <path
       inkscape:connector-curvature="0"
       d="m 11.799448,8.3807553 c 0.293636,-0.6017877 0.458169,-1.2754119 0.458169,-1.9864527 0,-2.5522145 -2.117149,-4.6212528 -4.7287164,-4.6212528 -2.6115667,0 -4.7287157,2.0690383 -4.7287157,4.6212528 0,2.5522188 2.117149,4.6212534 4.7287157,4.6212534 0.017109,0 0.034218,-3.44e-4 0.051316,-6.87e-4 -0.00275,0.05134 -0.00408,0.103082 -0.00408,0.15502 0,1.65989 1.3769517,3.005548 3.0754394,3.005548 1.698485,0 3.075436,-1.345658 3.075436,-3.005548 0,-1.2634696 -0.797622,-2.3446552 -1.927571,-2.7892266 z M 9.2656696,3.9760144 9.4697056,3.776614 9.6884066,3.9903443 9.6810636,6.2838579 9.4623666,6.4760958 9.2436656,6.2838579 9.2656496,3.9760144 Z M 4.8560409,8.833885 4.6373434,9.026122 4.4186426,8.833885 4.4404236,6.526044 4.6444617,6.3266445 4.8631627,6.5403706 4.8560484,8.833885 Z M 5.8910977,8.0882185 C 5.4938121,8.476475 5.1185206,8.3968744 5.1185206,8.3968744 L 5.3105449,8.1807566 c 0,0 -0.063124,-0.080798 -0.1942642,-0.2185053 0.1895816,0 0.6123174,-0.1661679 0.6123174,-0.5532295 0,-0.5745236 -0.4956372,-0.6648709 -0.4956372,-0.6648709 L 5.0920501,6.4971899 c 0,0 0.036451,-0.030854 0.3109443,-0.1709446 0.6705563,0.2302444 0.7823511,0.823873 0.7799051,0.854717 -0.00275,0.031259 0.1052777,0.5192013 -0.2918018,0.9072562 z M 7.1106413,4.9756094 C 7.8394363,4.5933237 8.4299659,5.215408 8.4833194,5.2914261 8.5368754,5.3674476 8.6898003,5.5929188 8.6898003,5.9443579 8.468656,5.7545084 8.4541995,5.7473451 8.4541995,5.7473451 L 8.2306137,5.9467454 c 0,0 -0.019343,-0.6316351 -0.6487684,-0.6316351 -0.6292202,0 -0.6025435,0.745464 -0.6025435,0.8119305 L 6.7532694,6.3503252 6.5272405,6.1365949 c 2.061e-4,0 -0.1453942,-0.7786989 0.5834008,-1.1609855 z m 0.5394195,2.6188811 c -0.5247567,0 -0.8721519,-0.3205942 -1.0106201,-0.5792986 C 6.5009725,6.7564884 6.5276459,6.5023632 6.5276459,6.5023632 l 0.218701,0.2041762 c 0,0 0.1142375,-0.1068648 0.2331576,-0.2089546 0.019548,0.4107457 0.3522804,0.6364143 0.6243315,0.6364143 0.7094494,0 0.6267777,-0.8310396 0.6267777,-0.8310396 L 8.4637713,6.0916209 c 0,0 0.014668,-0.00236 0.2309179,0.2137261 0,0.8829812 -0.5198717,1.2891435 -1.0446284,1.2891435 z M 9.114573,11.582916 c -0.1378565,0 -0.2543336,-0.09293 -0.2543336,-0.311837 l 0.077583,0 c 0,0.159201 0.086135,0.21353 0.1793991,0.21353 0.074122,0 0.1559821,-0.03085 0.1559821,-0.157415 0,-0.120394 -0.098355,-0.141488 -0.1965044,-0.172335 -0.098354,-0.03064 -0.1973184,-0.07144 -0.1973184,-0.232436 0,-0.178107 0.1111806,-0.251936 0.2233841,-0.251936 0.1258417,0 0.2215487,0.08338 0.2268427,0.282385 l -0.07758,0 c -0.0096,-0.139303 -0.06801,-0.184079 -0.1525191,-0.184079 -0.069034,0 -0.1378574,0.03363 -0.1378574,0.147858 0,0.10826 0.098352,0.122785 0.1975218,0.154825 0.098355,0.03205 0.1965037,0.07941 0.1965037,0.251541 -6.87e-4,0.186465 -0.129103,0.259899 -0.2411005,0.259899 z m 0.5939926,0.0017 c -0.191413,0 -0.284473,-0.198607 -0.284473,-0.454326 0,-0.254326 0.101818,-0.453129 0.291396,-0.453129 0.128491,0 0.234583,0.07661 0.25352,0.295519 l -0.08186,0 c -0.01732,-0.139303 -0.08715,-0.198607 -0.172476,-0.198607 -0.146613,0 -0.208721,0.164379 -0.208721,0.347461 0,0.200396 0.06211,0.365967 0.209535,0.365967 0.107721,0 0.169827,-0.09711 0.177568,-0.256317 l 0.08186,0 c -0.01546,0.239006 -0.111184,0.353432 -0.266348,0.353432 z m 0.8585064,-0.01495 -0.08145,0 0,-0.398007 -0.32581,0 0,0.398007 -0.08146,0 0,-0.875611 0.08146,0 0,0.378105 0.32581,0 0,-0.378105 0.08145,0 0,0.875611 z M 10.181601,5.8825415 9.9046606,5.7020436 c 0,0 0.01711,-0.035622 0.1749204,-0.2658669 0.366943,-0.114028 0.461632,-0.3918373 0.461632,-0.5792994 0,-0.5769111 -0.6123174,-0.6244718 -0.6123174,-0.6244718 L 10.125602,4.023451 c 0,0 -0.04622,-0.06408 -0.2040384,-0.2278569 0.4494134,0.021301 1.0666194,0.2730301 1.0786334,1.0849648 0.01223,0.812133 -0.818596,1.0019826 -0.818596,1.0019826 z m 0.777868,5.7024385 c -0.195686,0 -0.294856,-0.221292 -0.294856,-0.459698 0,-0.238407 0.09917,-0.459699 0.294856,-0.459699 0.19569,0 0.294859,0.221292 0.294859,0.459699 0,0.238406 -0.09917,0.459698 -0.294859,0.459698 z m 0.655285,0 c -0.19569,0 -0.294856,-0.221292 -0.294856,-0.459698 0,-0.238407 0.09917,-0.459699 0.294856,-0.459699 0.195691,0 0.294856,0.221292 0.294856,0.459699 0,0.238406 -0.09916,0.459698 -0.294856,0.459698 z m 0.805359,-0.01533 -0.407258,0 0,-0.875615 0.06108,0 0,0.776113 0.346172,0 0,0.0995 z"
       id="path7"
       style="fill:#00ff00" />
  </g>
</svg>
