<?xml version="1.0" encoding="utf-8"?>
<!-- Generator: Adobe Illustrator 16.0.0, SVG Export Plug-In . SVG Version: 6.00 Build 0)  -->
<!DOCTYPE svg PUBLIC "-//W3C//DTD SVG 1.1//EN" "http://www.w3.org/Graphics/SVG/1.1/DTD/svg11.dtd">
<svg version="1.1" id="Calque_1" xmlns="http://www.w3.org/2000/svg" xmlns:xlink="http://www.w3.org/1999/xlink" x="0px" y="0px"
	 width="640px" height="480px" viewBox="0 0 640 480" enable-background="new 0 0 640 480" xml:space="preserve">
<path fill="#FFFFFF" d="M352.287,355.804c-3.603-1.188-7.175-1.764-7.175-5.786c0-4.251,2.507-5.651,5.014-5.651
	c3.071,0,5.2,1.634,5.545,6.634h2.82c-0.188-7-3.665-10.296-8.24-10.296c-4.073,0-8.115,2.901-8.115,9.529
	c0,5.986,3.604,7.51,7.175,8.653c3.572,1.142,7.145,1.91,7.145,6.389c0,4.707-2.977,5.788-5.672,5.788
	c-3.383,0-6.517-2.063-6.517-8.063h-2.819c0,8,4.229,11.727,9.242,11.727c4.073,0,8.742-2.674,8.742-9.621
	C359.432,358.706,355.86,356.992,352.287,355.804z"/>
<polygon fill="#FFFFFF" points="401,356 389,356 389,342 386,342 386,374 389,374 389,359 401,359 401,374 404,374 404,342 401,342 
	"/>
<path fill="#FFFFFF" d="M327.043,170.644l-8.477,7.858c0,0,3.002,30.904-22.78,30.904c-9.889,0-21.986-8.388-22.693-23.664
	c-4.326,3.797-8.476,7.771-8.476,7.771l-7.946-7.594c0,0-0.971,9.448,4.062,19.072c5.033,9.624,17.659,21.544,36.731,21.544
	s37.968-15.098,37.968-47.944C327.573,170.556,327.043,170.644,327.043,170.644z"/>
<path fill="#FFFFFF" d="M215.79,179.385c-9.978,5.21-11.302,6.357-11.302,6.357l5.121,9.183c0,0,18.013,3.355,18.013,24.723
	c0,14.392-15.364,20.573-22.251,20.573c4.769,5.121,7.063,8.123,7.063,8.123l-6.976,8.035c0,0,13.642,2.958,28.078-11.479
	c14.437-14.436,10.508-32.581,10.596-33.729C244.222,210.024,240.16,187.95,215.79,179.385z"/>
<polygon fill="#FFFFFF" points="371.279,177.796 371.544,92.502 363.598,84.555 356.181,91.973 355.386,177.796 363.333,184.948 "/>
<path fill="#FFFFFF" d="M264.883,180.269l8.211-8.3c0-2.472-0.971-30.197,21.897-30.197c22.869,0,23.575,23.487,23.575,23.487
	l8.123-7.417c0,0,0.53,0.265,8.565,7.329c0-13.068-5.563-21.456-7.506-24.281c-1.941-2.825-23.398-25.959-49.887-11.744
	c-26.489,14.215-21.192,43.177-21.192,43.177L264.883,180.269z"/>
<polygon fill="#FFFFFF" points="180.825,186.803 180.03,272.626 187.977,279.778 195.923,272.626 196.188,187.333 188.242,179.385 
	"/>
<path fill="#FFFFFF" d="M372.529,371.392c-5.358,0-7.613-6.183-7.613-13.634c0-6.809,2.255-13.001,7.582-13.001
	c3.103,0,5.641,2.243,6.267,7.243h2.977c-0.689-8-4.543-10.938-9.212-10.938c-6.894,0-10.591,7.462-10.591,16.923
	c0,9.508,3.385,17.056,10.34,17.056c5.641,0,9.119-5.04,9.683-13.04h-2.977C378.702,367,376.445,371.392,372.529,371.392z"/>
<path fill="#FFFFFF" d="M441.557,340.748c-7.113,0-10.717,8.228-10.717,17.094c0,8.867,3.604,17.095,10.717,17.095
	c7.112,0,10.716-8.228,10.716-17.095C452.272,348.976,448.669,340.748,441.557,340.748z M441.557,371.279
	c-5.452,0-7.739-6.854-7.739-13.438c0-6.581,2.287-13.438,7.739-13.438s7.739,6.856,7.739,13.438
	C449.296,364.425,447.009,371.279,441.557,371.279z"/>
<path fill="#FFFFFF" d="M419.224,125.613c-0.441-30.197-22.868-39.557-39.203-40.351c5.739,6.092,7.417,8.476,7.417,8.476
	l-7.152,7.77c0,0,22.251,1.766,22.251,23.222c0,6.976-3.444,17.306-16.776,21.544c-5.739,8.565-6.357,9.89-6.357,9.89l10.066,6.71
	C389.469,162.874,419.666,155.811,419.224,125.613z"/>
<polygon fill="#FFFFFF" points="458,342 456,342 456,374 471,374 471,370 458,370 "/>
<path fill="#FFFFFF" d="M417.743,340.748c-7.113,0-10.717,8.228-10.717,17.094c0,8.867,3.604,17.095,10.717,17.095
	c7.112,0,10.716-8.228,10.716-17.095C428.459,348.976,424.855,340.748,417.743,340.748z M417.743,371.279
	c-5.452,0-7.739-6.854-7.739-13.438c0-6.581,2.287-13.438,7.739-13.438s7.738,6.856,7.738,13.438
	C425.481,364.425,423.195,371.279,417.743,371.279z"/>
<path fill="#ED1E79" d="M441.557,344.404c-5.452,0-7.739,6.856-7.739,13.438c0,6.583,2.287,13.438,7.739,13.438
	s7.739-6.854,7.739-13.438C449.296,351.261,447.009,344.404,441.557,344.404z"/>
<path fill="#ED1E79" d="M417.743,344.404c-5.452,0-7.739,6.856-7.739,13.438c0,6.583,2.287,13.438,7.739,13.438
	s7.738-6.854,7.738-13.438C425.481,351.261,423.195,344.404,417.743,344.404z"/>
<path fill="#ED1E79" d="M448.269,255.779c10.672-22.38,16.651-47.428,16.651-73.874c0-94.912-76.941-171.854-171.854-171.854
	c-94.912,0-171.854,76.942-171.854,171.854c0,94.913,76.942,171.854,171.854,171.854c0.624,0,1.243-0.018,1.865-0.024
	c-0.096,1.909-0.146,3.83-0.146,5.762c0,61.729,50.042,111.77,111.77,111.77s111.77-50.041,111.77-111.77
	C518.324,312.517,489.334,272.311,448.269,255.779z M356.181,91.973l7.417-7.417l7.946,7.947l-0.265,85.293l-7.946,7.152
	l-7.947-7.152L356.181,91.973z M195.923,272.626l-7.947,7.152l-7.947-7.152l0.795-85.823l7.417-7.417l7.946,7.947L195.923,272.626z
	 M233.537,244.901c-14.436,14.437-28.078,11.479-28.078,11.479l6.976-8.035c0,0-2.295-3.002-7.063-8.123
	c6.887,0,22.251-6.181,22.251-20.573c0-21.368-18.013-24.723-18.013-24.723l-5.121-9.183c0,0,1.324-1.147,11.302-6.357
	c24.37,8.565,28.432,30.639,28.343,31.787C244.045,212.32,247.974,230.465,233.537,244.901z M277.862,129.145
	c26.488-14.215,47.945,8.918,49.887,11.744c1.943,2.825,7.506,11.213,7.506,24.281c-8.035-7.064-8.565-7.329-8.565-7.329
	l-8.123,7.417c0,0-0.707-23.487-23.575-23.487c-22.868,0-21.897,27.725-21.897,30.197l-8.211,8.3l-8.212-7.947
	C256.67,172.322,251.374,143.36,277.862,129.145z M297.464,226.536c-19.072,0-31.698-11.92-36.731-21.544
	c-5.033-9.624-4.062-19.072-4.062-19.072l7.946,7.594c0,0,4.15-3.973,8.476-7.771c0.707,15.275,12.804,23.664,22.693,23.664
	c25.782,0,22.78-30.904,22.78-30.904l8.477-7.858c0,0,0.53-0.088,8.389,7.947C335.432,211.438,316.536,226.536,297.464,226.536z
	 M350.689,374.727c-5.013,0-9.242-3.727-9.242-11.727h2.819c0,6,3.134,8.068,6.517,8.068c2.695,0,5.672-1.08,5.672-5.787
	c0-4.479-3.572-5.233-7.145-6.375c-3.571-1.144-7.175-2.643-7.175-8.629c0-6.628,4.042-9.574,8.115-9.574
	c4.575,0,8.053,3.297,8.24,10.297h-2.82c-0.345-5-2.474-6.634-5.545-6.634c-2.507,0-5.014,1.355-5.014,5.606
	c0,4.022,3.572,4.62,7.175,5.809c3.573,1.188,7.145,2.913,7.145,9.313C359.432,372.041,354.763,374.727,350.689,374.727z
	 M372.278,375.03c-6.955,0-10.34-7.444-10.34-16.95c0-9.463,3.697-16.961,10.591-16.961c4.669,0,8.522,2.881,9.212,10.881h-2.977
	c-0.626-5-3.164-7.301-6.267-7.301c-5.327,0-7.582,6.154-7.582,12.965c0,7.449,2.255,13.737,7.613,13.737
	c3.916,0,6.173-4.401,6.455-9.401h2.977C381.397,370,377.919,375.03,372.278,375.03z M404,374h-3v-15h-12v15h-3v-32h3v14h12v-14h3
	V374z M389.469,162.874l-10.066-6.71c0,0,0.618-1.325,6.357-9.89c13.332-4.238,16.776-14.568,16.776-21.544
	c0-21.456-22.251-23.222-22.251-23.222l7.152-7.77c0,0-1.678-2.384-7.417-8.476c16.335,0.794,38.762,10.154,39.203,40.351
	C419.666,155.811,389.469,162.874,389.469,162.874z M417.743,374.937c-7.113,0-10.717-8.228-10.717-17.095
	c0-8.866,3.604-17.094,10.717-17.094c7.112,0,10.716,8.228,10.716,17.094C428.459,366.709,424.855,374.937,417.743,374.937z
	 M441.557,374.937c-7.113,0-10.717-8.228-10.717-17.095c0-8.866,3.604-17.094,10.717-17.094c7.112,0,10.716,8.228,10.716,17.094
	C452.272,366.709,448.669,374.937,441.557,374.937z M471,374h-15v-32h2v28h13V374z"/>
</svg>
